# xmcd
#
# Track frame offsets:
#	150
#	26992
#	45472
#	64385
#	90322
#	123660
#	145240
#	167242
#	186812
#	214865
#	233847
#
# Disc length: 3429 seconds
#
# Revision: 2
# Processed by: cddbd v1.5.2PL0 Copyright (c) Steve Scherf et al.
# Submitted via: Jack! The Knife
#
DISCID=9f0d630b
DTITLE=Ozzy Osbourne - No More Tears
DYEAR=1991
DGENRE=Heavy Metal
TTITLE0=Mr. Tinkertrain
TTITLE1=I Don't Want To Change The World
TTITLE2=Mama, I'm Coming Home
TTITLE3=Desire
TTITLE4=No More Tears
TTITLE5=S.I.N.
TTITLE6=Hellraiser
TTITLE7=Time After Time
TTITLE8=Zombie Stomp
TTITLE9=A.V.H.
TTITLE10=Road To Nowhere
EXTD=Produced by: Duane Baron and John Purdell [Epic]
EXTT0=Osbourne - Wylde - Castillo
EXTT1=Osbourne - Wylde - Castillo - Kilmister
EXTT2=Osbourne - Wylde - Kilmister
EXTT3=Osbourne - Wylde - Castillo - Kilmister
EXTT4=Osbourne - Wylde - Castillo - Inez - Purdell
EXTT5=Osbourne - Castillo - Wylde
EXTT6=Osbourne - Wylde - Kilmister
EXTT7=Osbourne - Wylde
EXTT8=Osbourne - Wylde - Castillo
EXTT9=Osbourne - Wylde - Castillo
EXTT10=Osbourne - Wylde - Castillo
PLAYORDER=
